<?xml version="1.0" standalone="no"?>
<!DOCTYPE svg PUBLIC "-//W3C//DTD SVG 20010904//EN"
 "http://www.w3.org/TR/2001/REC-SVG-20010904/DTD/svg10.dtd">
<svg version="1.0" xmlns="http://www.w3.org/2000/svg"
 width="32.000000pt" height="32.000000pt" viewBox="0 0 32.000000 32.000000"
 preserveAspectRatio="xMidYMid meet">

<g transform="translate(0.000000,32.000000) scale(0.100000,-0.100000)"
fill="#000000" stroke="none">
<path d="M0 160 l0 -160 160 0 160 0 0 160 0 160 -160 0 -160 0 0 -160z m136
80 c15 -22 30 -40 34 -40 5 0 24 19 44 42 19 24 37 40 40 37 3 -3 -12 -27 -34
-53 l-40 -48 38 -56 c58 -86 57 -82 18 -82 -29 0 -38 6 -58 37 -13 20 -26 41
-29 46 -3 5 -27 -13 -52 -40 -25 -26 -48 -45 -51 -43 -3 3 9 21 27 40 64 70
64 62 12 135 l-47 65 36 0 c31 0 40 -6 62 -40z"/>
<path d="M77 263 c-8 -7 130 -200 149 -207 23 -9 16 5 -56 109 -62 89 -81 110
-93 98z"/>
</g>
</svg>
