<?xml version="1.0" standalone="no"?>
<!DOCTYPE svg PUBLIC "-//W3C//DTD SVG 20010904//EN"
 "http://www.w3.org/TR/2001/REC-SVG-20010904/DTD/svg10.dtd">
<svg version="1.0" xmlns="http://www.w3.org/2000/svg"
 width="500.000000pt" height="500.000000pt" viewBox="0 0 500.000000 500.000000"
 preserveAspectRatio="xMidYMid meet">

<g transform="translate(0.000000,500.000000) scale(0.100000,-0.100000)"
fill="#000000" stroke="none">
<path d="M2200 4445 c-532 -83 -1019 -390 -1319 -830 -161 -237 -262 -479
-318 -767 -23 -118 -26 -561 -5 -673 97 -504 331 -898 727 -1222 210 -171 530
-319 835 -385 95 -20 131 -23 380 -23 315 0 374 9 619 91 629 209 1115 724
1279 1354 53 203 57 238 57 510 0 272 -4 307 -57 510 -194 746 -835 1319
-1606 1435 -122 19 -473 18 -592 0z m662 -169 c614 -132 1097 -539 1327 -1119
124 -311 154 -697 81 -1042 -75 -359 -292 -730 -567 -970 -338 -296 -759 -455
-1203 -455 -366 0 -704 103 -1011 308 -204 136 -353 287 -494 497 -205 305
-305 640 -305 1015 1 279 57 523 180 777 266 552 785 928 1398 1012 37 6 159
8 272 6 173 -3 224 -7 322 -29z"/>
<path d="M2240 4230 c-203 -31 -361 -83 -549 -180 -157 -82 -284 -174 -411
-300 -282 -279 -449 -603 -511 -995 -17 -105 -17 -419 0 -515 69 -396 229
-710 501 -980 223 -223 497 -378 798 -454 604 -153 1228 19 1667 459 268 267
435 598 496 980 17 102 17 406 0 510 -90 570 -431 1042 -943 1305 -318 164
-695 225 -1048 170z m437 -175 l23 -16 -2 -209 -3 -210 -55 0 -56 0 4 70 4 70
-67 0 -67 0 7 -32 c4 -18 15 -49 25 -68 l18 -35 -62 5 -61 5 -13 50 c-7 28
-11 83 -9 126 6 129 63 218 164 255 44 17 116 11 150 -11z m271 -46 c125 -44
172 -92 180 -185 12 -145 -80 -264 -205 -264 -66 0 -206 49 -197 70 26 57 135
366 136 386 2 18 7 23 18 18 8 -3 39 -14 68 -25z m-734 15 c11 -4 16 -19 16
-50 0 -41 -2 -44 -19 -34 -35 18 -105 12 -142 -13 -42 -28 -59 -60 -59 -115 0
-52 19 -91 60 -126 55 -45 151 -31 198 29 l20 25 21 -26 c27 -35 26 -45 -6
-77 -101 -96 -259 -86 -340 21 -99 131 -53 305 94 358 40 14 130 18 157 8z
m-3 -196 c6 -24 13 -45 14 -48 2 -3 -12 -4 -30 -2 -46 5 -101 -14 -125 -45
l-20 -26 0 48 c0 40 5 52 34 81 28 28 42 34 75 34 39 0 41 -1 52 -42z m1237
-74 c2 -1 -5 -11 -16 -22 -20 -20 -62 -120 -62 -147 0 -19 85 32 127 75 l29
30 45 -38 c25 -20 46 -41 47 -45 2 -5 -48 -32 -110 -61 -62 -29 -125 -59 -140
-67 -28 -15 -108 -110 -108 -128 0 -6 -3 -11 -7 -11 -14 0 -99 79 -86 80 7 0
32 25 56 55 45 54 60 101 113 343 5 23 6 22 57 -19 29 -24 54 -44 55 -45z
m-1726 56 c53 -15 98 -70 98 -120 0 -21 -5 -51 -12 -65 -14 -30 -7 -37 92 -87
l65 -33 -49 -36 -49 -35 -96 64 c-53 36 -100 69 -105 74 -6 5 5 22 27 42 20
18 37 43 37 55 0 25 -33 61 -57 61 -19 0 -93 -48 -93 -60 0 -5 19 -34 43 -67
24 -32 67 -91 96 -131 29 -39 59 -76 67 -80 10 -6 1 -17 -35 -44 l-48 -37 -11
23 c-12 28 -195 280 -228 317 l-24 25 82 59 c67 48 131 82 158 85 3 0 22 -5
42 -10z m958 -396 c91 -20 215 -83 302 -153 120 -94 211 -232 260 -393 22 -73
23 -76 26 -887 l3 -814 -27 26 c-38 39 -95 37 -135 -2 l-29 -29 -29 29 c-41
41 -98 41 -136 0 l-28 -28 -27 31 c-36 40 -96 43 -134 7 l-26 -24 0 71 c0 41
-4 72 -10 72 -6 0 -10 -30 -10 -70 l0 -71 -22 21 c-33 31 -92 27 -128 -8 l-28
-28 -31 28 c-44 39 -99 39 -137 -1 l-27 -29 -28 29 c-38 41 -96 41 -137 0
l-29 -29 -27 29 c-34 36 -90 40 -130 8 l-26 -20 0 200 c0 127 -4 201 -10 201
-6 0 -10 -74 -10 -201 l0 -200 -26 20 c-39 31 -94 28 -128 -6 l-27 -27 3 815
c4 811 4 814 26 887 48 156 139 296 251 387 199 160 424 214 671 159z m-1296
-143 c60 -44 113 -81 117 -81 10 0 77 92 98 135 l16 34 37 -32 37 -32 -92
-122 -91 -123 -25 24 c-51 47 -312 236 -327 236 -10 0 -2 16 23 50 l37 50 31
-29 c16 -15 79 -65 139 -110z m2511 -45 c42 -93 50 -132 35 -185 -29 -107
-179 -191 -290 -161 -61 16 -113 71 -154 163 -19 42 -30 77 -24 77 14 0 347
149 373 167 11 7 21 13 23 13 2 0 18 -33 37 -74z m-2622 -126 c95 -33 182 -60
195 -60 12 0 22 -1 22 -3 0 -4 -32 -101 -35 -104 0 -2 -25 6 -53 17 -29 11
-58 20 -65 20 -15 0 -54 -107 -43 -118 4 -4 34 -7 67 -6 32 1 59 -2 59 -6 0
-3 -7 -28 -16 -54 l-17 -48 -58 6 c-87 10 -146 31 -204 71 -84 57 -128 159
-106 243 12 41 54 102 73 102 5 0 87 -27 181 -60z m2687 -323 c27 -13 57 -39
75 -65 26 -38 30 -54 33 -121 3 -58 0 -86 -12 -110 -17 -33 -24 -35 -75 -25
l-31 6 20 26 c24 30 27 109 6 151 -43 82 -159 92 -235 22 -37 -34 -41 -43 -41
-85 0 -50 10 -78 41 -112 19 -21 19 -21 -20 -36 -37 -15 -41 -15 -55 1 -29 32
-49 96 -49 157 -1 171 180 272 343 191z m-110 -112 c36 -19 60 -62 60 -109 0
-41 -20 -56 -73 -56 l-35 0 10 34 c13 43 3 101 -23 127 -19 19 -19 19 6 19 15
0 39 -7 55 -15z m-2532 -162 c77 -58 93 -208 31 -287 l-19 -24 -38 21 -39 21
24 34 c43 64 24 158 -31 150 -22 -3 -28 -19 -55 -133 -36 -148 -195 -148 -251
0 -16 42 -14 136 4 178 8 21 17 37 20 37 12 0 76 -34 76 -41 0 -3 -7 -23 -16
-44 -25 -60 -4 -125 42 -125 29 0 31 3 49 91 16 79 37 116 76 137 31 16 95 9
127 -15z m2441 -134 c95 -15 155 -45 206 -101 56 -62 71 -121 51 -199 -14 -53
-46 -92 -69 -84 -39 13 -353 85 -372 85 -22 0 -23 1 -11 53 13 56 11 55 88 36
27 -7 51 -10 54 -7 13 14 33 113 24 122 -6 6 -31 5 -67 -1 -32 -6 -59 -10 -61
-8 -1 1 2 25 8 53 14 65 31 71 149 51z m-2282 -388 c-19 -2 -306 -127 -315
-136 -5 -4 28 -67 44 -86 13 -14 9 -18 -27 -32 -23 -9 -45 -15 -48 -12 -16 10
-133 287 -125 295 5 5 26 16 47 25 37 15 37 15 37 -8 0 -32 20 -87 31 -87 13
0 280 120 304 136 18 13 22 10 46 -38 27 -53 27 -53 6 -57z m2278 -66 c88 -53
161 -98 163 -100 2 -2 -18 -37 -44 -77 -75 -118 -146 -153 -247 -124 -118 34
-192 125 -185 226 3 44 13 71 53 137 l50 81 25 -23 c14 -13 97 -67 185 -120z
m-2157 -90 l32 -44 -22 -12 c-35 -19 -258 -188 -298 -225 l-36 -34 -36 49
c-32 43 -35 50 -19 54 23 6 331 237 331 248 0 19 16 6 48 -36z"/>
<path d="M2540 3972 c-33 -18 -65 -66 -72 -107 -3 -18 3 -20 65 -23 l67 -3 0
76 c0 83 -4 87 -60 57z"/>
<path d="M2931 3898 c-35 -93 -81 -227 -81 -235 0 -12 33 -23 67 -23 12 0 38
14 58 31 73 65 82 199 15 234 -39 20 -49 19 -59 -7z"/>
<path d="M2510 2933 c-95 -39 -155 -195 -121 -319 28 -103 109 -173 188 -161
37 5 36 4 -17 -21 -38 -18 -49 -27 -37 -30 10 -2 39 7 64 20 89 45 150 174
141 297 -6 79 -43 159 -89 191 -31 23 -101 35 -129 23z"/>
<path d="M2860 2922 c-48 -26 -97 -109 -106 -181 -15 -118 38 -253 120 -308
26 -18 59 -33 73 -33 30 0 22 16 -14 25 -14 3 -35 12 -46 20 -17 12 -15 13 20
8 80 -11 158 58 184 162 15 60 7 160 -19 217 -39 89 -137 131 -212 90z"/>
<path d="M2650 2316 c0 -30 52 -76 85 -76 40 0 73 21 90 55 8 18 15 36 15 39
0 3 -43 6 -95 6 -94 0 -95 0 -95 -24z"/>
<path d="M2300 1615 c0 -182 3 -274 10 -270 6 4 10 105 10 270 0 165 -4 266
-10 270 -7 4 -10 -88 -10 -270z"/>
<path d="M3070 1685 c0 -135 3 -204 10 -200 6 4 10 82 10 200 0 118 -4 196
-10 200 -7 4 -10 -65 -10 -200z"/>
<path d="M1910 1755 c0 -43 4 -75 10 -75 6 0 10 32 10 75 0 43 -4 75 -10 75
-6 0 -10 -32 -10 -75z"/>
<path d="M2100 1645 c0 -57 4 -95 10 -95 6 0 10 38 10 95 0 57 -4 95 -10 95
-6 0 -10 -38 -10 -95z"/>
<path d="M2687 1723 c-11 -11 -8 -251 3 -258 6 -4 10 42 10 129 0 75 -1 136
-3 136 -2 0 -7 -3 -10 -7z"/>
<path d="M2877 1634 c-4 -4 -7 -77 -7 -161 0 -119 3 -154 13 -151 9 4 13 45
15 153 2 136 -3 177 -21 159z"/>
<path d="M2490 1370 c0 -80 4 -130 10 -130 6 0 10 50 10 130 0 80 -4 130 -10
130 -6 0 -10 -50 -10 -130z"/>
<path d="M2100 1350 c0 -33 4 -60 10 -60 6 0 10 27 10 60 0 33 -4 60 -10 60
-6 0 -10 -27 -10 -60z"/>
<path d="M3694 3113 c-132 -61 -136 -66 -88 -118 62 -67 244 9 244 102 0 35
-15 74 -28 72 -4 0 -62 -26 -128 -56z"/>
<path d="M1105 3027 c-9 -35 17 -90 57 -121 19 -14 37 -26 41 -26 5 0 49 122
44 125 -1 1 -27 10 -57 20 -30 10 -60 20 -67 22 -7 3 -15 -6 -18 -20z"/>
<path d="M3811 2213 c-25 -97 -30 -87 46 -105 75 -18 87 -13 76 32 -8 38 -31
69 -66 90 -43 26 -45 26 -56 -17z"/>
<path d="M3536 1882 c-14 -30 -15 -43 -6 -67 24 -64 100 -115 171 -115 33 0
47 6 71 32 24 25 27 34 16 44 -13 11 -225 144 -232 144 -2 0 -11 -17 -20 -38z"/>
</g>
</svg>
